<svg id="Layer_1" data-name="Layer 1" xmlns="http://www.w3.org/2000/svg" viewBox="0 0 121.61 100.16">
    <defs>
        <style>.cls-1{fill:#231f20;}</style>
    </defs>
    <title>BandOfMeChars</title>
    <path class="cls-1" d="M191.5,284.23a.79.79,0,0,1-.14.68,1,1,0,0,1-.59.41q-2.49.59-5,1.38t-5.13,1.7a.13.13,0,0,1,0,.09,14.94,14.94,0,0,1,1.45,5.16,12,12,0,0,1-1.7,7.55,18.79,18.79,0,0,1-6.54,6.24,30.47,30.47,0,0,1-5.22,2.49,27.88,27.88,0,0,1-5.63,1.45,20.65,20.65,0,0,1-3.21.27l-.86,0-.77-.07a7.64,7.64,0,0,1-3.62-1.22,4.4,4.4,0,0,1-1.85-2.67,5.41,5.41,0,0,1,.09-2.44,9.38,9.38,0,0,1,2-3.6,26.92,26.92,0,0,1,3.53-3.39,42.49,42.49,0,0,1,4.12-2.94q2.13-1.34,3.8-2.28a74.87,74.87,0,0,1,7-3.48q-.27-.59-.54-1.13a7.49,7.49,0,0,0-.63-1,11.71,11.71,0,0,1-2,.18q-1,0-2-.09a3.85,3.85,0,0,1-2.49-1.22,2.81,2.81,0,0,1-.59-2.35,4.16,4.16,0,0,1,.63-1.54A4.21,4.21,0,0,1,167,281l.09-.09a6.23,6.23,0,0,1,3.39-.86,7.85,7.85,0,0,1,4.25,1.36,17.87,17.87,0,0,0,3.75-4.34,16,16,0,0,0,1-1.83,13.23,13.23,0,0,0,.75-2.22,11.36,11.36,0,0,0,.32-2.51,9.59,9.59,0,0,0-.38-2.76,11.28,11.28,0,0,0-2.44-4.7,10.88,10.88,0,0,0-3.87-2.78,11.5,11.5,0,0,0-4.73-.88,14.3,14.3,0,0,0-9.32,3.75,18,18,0,0,0-3.12,3.78,19.76,19.76,0,0,0-2,4.3,18.59,18.59,0,0,0-.88,4.25,11.8,11.8,0,0,0,.23,3.64,4.61,4.61,0,0,0,1.29,2.44.65.65,0,0,1,.2.68,1.55,1.55,0,0,1-.52.7,3.45,3.45,0,0,1-1,.57,4.06,4.06,0,0,1-1.29.25,3.56,3.56,0,0,1-1.36-.23,2.55,2.55,0,0,1-1.18-.93,8,8,0,0,1-1.81-4.41,12.88,12.88,0,0,1,.57-5,19.71,19.71,0,0,1,2.4-5,22.82,22.82,0,0,1,3.69-4.34,22.36,22.36,0,0,1,4.16-3,28.92,28.92,0,0,1,4.43-2.08A22.74,22.74,0,0,1,168,257.6a25.81,25.81,0,0,1,4.57-.27,22.61,22.61,0,0,1,4.43.57,18.78,18.78,0,0,1,4,1.4,13.69,13.69,0,0,1,4.39,3.3,11.3,11.3,0,0,1,2.4,4.57,12.5,12.5,0,0,1-.23,7.19,17.68,17.68,0,0,1-3.8,6.38,16.07,16.07,0,0,1-2.4,2.35,24.85,24.85,0,0,1-2.76,1.9l.63.88a5.24,5.24,0,0,1,.54.93,111.25,111.25,0,0,1,10.72-3.26.79.79,0,0,1,1,.68Zm-37,21.31a3.42,3.42,0,0,0,.09,2.1,2.38,2.38,0,0,0,1.13,1.18,4.55,4.55,0,0,0,1.85.43,10.4,10.4,0,0,0,2.24-.16,16.56,16.56,0,0,0,2.26-.57,20.37,20.37,0,0,0,2-.77,22.57,22.57,0,0,0,5.47-3.39,19.8,19.8,0,0,0,1.88-1.85,13.24,13.24,0,0,0,1.65-2.33,10.8,10.8,0,0,0,1.09-2.85,10.11,10.11,0,0,0,.18-3.32,14.43,14.43,0,0,0-.54-2.85q-1.86.81-3.55,1.67T167,294.58q-2.58,1.45-4.77,2.92a35.43,35.43,0,0,0-3.78,2.87Q155.17,303.27,154.54,305.53Zm1.94-16.83a5.62,5.62,0,0,1,.2-3.12,38.68,38.68,0,0,1,1.58-4.48q1-2.44,2.26-5t2.26-4.77a38.57,38.57,0,0,0,1.54-3.73q.52-1.54.16-1.9-.23-.18.09-.43a2.55,2.55,0,0,1,.9-.41,6.8,6.8,0,0,1,1.33-.2,4.49,4.49,0,0,1,1.42.14,2.58,2.58,0,0,1,1.18.68,2.23,2.23,0,0,1,.59,1.4,9.31,9.31,0,0,1-.43,3.71,28.85,28.85,0,0,1-1.63,4.09q-1,2.1-2.22,4.23T163.5,283a36.18,36.18,0,0,0-1.72,3.75,7.44,7.44,0,0,0-.59,3.12q0,.41-.57.79a2.35,2.35,0,0,1-1.36.38,3,3,0,0,1-1.58-.5A3.15,3.15,0,0,1,156.48,288.7Z" transform="translate(-148.29 -254.5)"/>
    <path class="cls-1" d="M201.9,272.1a1.23,1.23,0,0,1,.2-.68,2,2,0,0,1,.52-.54.76.76,0,0,0-.72-.54,2.09,2.09,0,0,0-1.4.57,10,10,0,0,0-1.65,1.76,24.2,24.2,0,0,0-1.83,2.85q-.95,1.7-1.9,3.78a17.28,17.28,0,0,0-1,2.83,13.58,13.58,0,0,0-.43,2.9,7.47,7.47,0,0,0,.27,2.42,1.94,1.94,0,0,0,1.13,1.36,1.43,1.43,0,0,0,1.33-.14,5.33,5.33,0,0,0,1.4-1.27,18.87,18.87,0,0,0,1.45-2.08q.75-1.22,1.45-2.56t1.36-2.67q.66-1.33,1.24-2.47.63-1.49,1.24-2.83t1-2.4a10.43,10.43,0,0,0,.54-1.81q.14-.75-.14-1t.29-.63a3.26,3.26,0,0,1,1.52-.41,4,4,0,0,1,1.88.41,2.7,2.7,0,0,1,1.38,1.81,5.57,5.57,0,0,1-.14,3.19,25.67,25.67,0,0,1-1.52,3.91q-1,2-2.08,4t-1.85,3.55a8.67,8.67,0,0,0-.86,2.49q-.11.93.93.84a2.41,2.41,0,0,0,1.13-.72,17.46,17.46,0,0,0,1.58-1.74q.86-1.06,1.79-2.37t1.72-2.62q.79-1.31,1.42-2.49a14.49,14.49,0,0,0,.9-1.94.68.68,0,0,1,.45-.45,1,1,0,0,1,.59,0,.78.78,0,0,1,.43.36.56.56,0,0,1,0,.59q-.36.77-1,2.1t-1.61,2.85q-.93,1.52-2,3.05a29,29,0,0,1-2.24,2.8,13.89,13.89,0,0,1-2.33,2.08,4,4,0,0,1-2.26.81,2.62,2.62,0,0,1-2.58-1.4,6.27,6.27,0,0,1-.63-3.8,22.56,22.56,0,0,1-1.81,2.56,8.3,8.3,0,0,1-2.06,1.83,5.64,5.64,0,0,1-2.35.81,5.49,5.49,0,0,1-2.74-.5,5,5,0,0,1-2.6-2.13,7.36,7.36,0,0,1-.93-3.05,11.27,11.27,0,0,1,.27-3.44,22.86,22.86,0,0,1,1-3.28,24.23,24.23,0,0,1,2.42-4.73,15.37,15.37,0,0,1,2.83-3.21,9.78,9.78,0,0,1,3.08-1.79,9.08,9.08,0,0,1,3.21-.5,7,7,0,0,1,1.15.2,3.51,3.51,0,0,1,1.13.52,3.08,3.08,0,0,1,.88,1,2.94,2.94,0,0,1,.36,1.52,1.67,1.67,0,0,1-.45,1.36,1.21,1.21,0,0,1-.95.41,1.47,1.47,0,0,1-1-.36A1.18,1.18,0,0,1,201.9,272.1Z" transform="translate(-148.29 -254.5)"/>
    <path class="cls-1" d="M231.53,274.14a12.1,12.1,0,0,1-.68,3.23q-.59,1.7-1.33,3.32T228,283.8a25.92,25.92,0,0,0-1.15,2.56,4.06,4.06,0,0,0-.34,1.74q.07.66,1,.66a2,2,0,0,0,1.13-.66,15.47,15.47,0,0,0,1.58-1.72q.86-1.06,1.79-2.4t1.74-2.65q.81-1.31,1.45-2.51a15.42,15.42,0,0,0,.9-2,.68.68,0,0,1,.45-.45,1,1,0,0,1,.59,0,.78.78,0,0,1,.43.36.56.56,0,0,1,0,.59q-.36.77-1,2.1t-1.61,2.85q-.93,1.52-2,3.05a28.92,28.92,0,0,1-2.24,2.8,13.89,13.89,0,0,1-2.33,2.08,4,4,0,0,1-2.26.81,2.29,2.29,0,0,1-1.54-.43,3.57,3.57,0,0,1-1-1.29,6.18,6.18,0,0,1-.57-1.83,7.22,7.22,0,0,1,0-2.06,17.47,17.47,0,0,1,.86-3.66q.63-1.81,1.38-3.46t1.47-3a19.17,19.17,0,0,0,1.09-2.4,3.13,3.13,0,0,0,.25-1.56q-.11-.54-1.06-.5a3.07,3.07,0,0,0-1.4.79,20.35,20.35,0,0,0-2,1.9q-1.06,1.15-2.15,2.53t-1.95,2.65q-.86,1.76-1.79,3.51T216,285.49a18.71,18.71,0,0,0-1.06,2.71,2.55,2.55,0,0,0,0,1.81q.18.36-.29.75a2,2,0,0,1-1.22.41,2.72,2.72,0,0,1-1.54-.47,3.15,3.15,0,0,1-1.2-1.85,5.37,5.37,0,0,1,0-2.85,28.89,28.89,0,0,1,1.18-3.78q.77-2,1.72-4.12t1.72-3.87a25.13,25.13,0,0,0,1.13-3q.36-1.27,0-1.63t.29-.63a3.31,3.31,0,0,1,1.54-.41,3.9,3.9,0,0,1,1.88.41,2.72,2.72,0,0,1,1.36,1.81,3.58,3.58,0,0,1,.14,1.29,9,9,0,0,1-.23,1.47q.86-1,1.74-1.9a15.42,15.42,0,0,1,1.79-1.58,10.32,10.32,0,0,1,1.76-1.09,3.9,3.9,0,0,1,1.67-.41,2.72,2.72,0,0,1,2.62,1.54A6.68,6.68,0,0,1,231.53,274.14Z" transform="translate(-148.29 -254.5)"/>
    <path class="cls-1" d="M247.54,272.1a1.23,1.23,0,0,1,.2-.68,2,2,0,0,1,.52-.54.76.76,0,0,0-.72-.54,2.09,2.09,0,0,0-1.4.57,10,10,0,0,0-1.65,1.76,24.2,24.2,0,0,0-1.83,2.85q-.95,1.7-1.9,3.78a17.28,17.28,0,0,0-1,2.83,13.58,13.58,0,0,0-.43,2.9,7.47,7.47,0,0,0,.27,2.42,1.94,1.94,0,0,0,1.13,1.36,1.77,1.77,0,0,0,2-.61,15.16,15.16,0,0,0,2.13-2.74,40,40,0,0,0,2.1-3.8q1-2.08,1.88-3.8.86-2.22,1.9-4.68l2.06-4.86q1-2.4,1.94-4.61t1.58-4q.65-1.74.95-2.85t.07-1.33q-.32-.27.29-.63a3.26,3.26,0,0,1,1.52-.41,4,4,0,0,1,1.88.41,2.7,2.7,0,0,1,1.38,1.81,5.61,5.61,0,0,1-.18,2.92,37.34,37.34,0,0,1-1.47,4.37q-1,2.44-2.28,5.27t-2.65,5.59q-1.34,2.76-2.53,5.32t-1.95,4.48a12.51,12.51,0,0,0-.86,3.05q-.11,1.13.66,1a2.26,2.26,0,0,0,1.15-.72,19.66,19.66,0,0,0,1.56-1.74q.86-1.06,1.76-2.37t1.72-2.62q.81-1.31,1.45-2.49a14.48,14.48,0,0,0,.9-1.94.68.68,0,0,1,.45-.45,1,1,0,0,1,.59,0,.78.78,0,0,1,.43.36.56.56,0,0,1,0,.59q-.36.77-1,2.1t-1.61,2.85q-.93,1.52-2,3.05a28.92,28.92,0,0,1-2.24,2.8,13.87,13.87,0,0,1-2.33,2.08,4,4,0,0,1-2.26.81,2.58,2.58,0,0,1-2.56-1.38,6.39,6.39,0,0,1-.66-3.73,19.54,19.54,0,0,1-1.81,2.51,8.91,8.91,0,0,1-2,1.79,5.49,5.49,0,0,1-2.35.81,5.33,5.33,0,0,1-2.71-.5,5,5,0,0,1-2.6-2.13,7.36,7.36,0,0,1-.93-3.05,11.27,11.27,0,0,1,.27-3.44,22.86,22.86,0,0,1,1-3.28,24.23,24.23,0,0,1,2.42-4.73,15.37,15.37,0,0,1,2.83-3.21,9.78,9.78,0,0,1,3.08-1.79,9.08,9.08,0,0,1,3.21-.5,7,7,0,0,1,1.15.2,3.51,3.51,0,0,1,1.13.52,3.08,3.08,0,0,1,.88,1,2.94,2.94,0,0,1,.36,1.52,1.8,1.8,0,0,1-.41,1.31,1.21,1.21,0,0,1-1,.45,1.47,1.47,0,0,1-1-.36A1.18,1.18,0,0,1,247.54,272.1Z" transform="translate(-148.29 -254.5)"/>
    <path class="cls-1" d="M257.47,297.07a1.08,1.08,0,0,1-.18.71.82.82,0,0,1-.77.46,1,1,0,0,1-.66-.25.8.8,0,0,1-.29-.65.84.84,0,0,1,.14-.46,1.36,1.36,0,0,1,.35-.37q-.25-.43-.57-.43a1.22,1.22,0,0,0-.69.26,4.31,4.31,0,0,0-.75.71q-.39.45-.75.91a14.58,14.58,0,0,0-1.25,1.92,20.43,20.43,0,0,0-1.06,2.25,17.29,17.29,0,0,0-.74,2.28,9.29,9.29,0,0,0-.29,2,3.5,3.5,0,0,0,.26,1.52,1.22,1.22,0,0,0,.92.72,1.24,1.24,0,0,0,1-.42A7.82,7.82,0,0,0,253.3,307q.57-.8,1.11-1.74t.94-1.74a1.59,1.59,0,0,1-.89-.91,2.48,2.48,0,0,1-.15-1.28,2.28,2.28,0,0,1,.49-1.14,1.25,1.25,0,0,1,1-.49l.55,0a.85.85,0,0,1,.58.32,1.58,1.58,0,0,1,.28.94,6.16,6.16,0,0,1-.34,1.88,5.58,5.58,0,0,0,2-.34,4.13,4.13,0,0,0,1.15-.68,2,2,0,0,0,.55-.72,3,3,0,0,1,.2-.45.41.41,0,0,1,.29-.26.56.56,0,0,1,.38,0,.59.59,0,0,1,.28.29.56.56,0,0,1,0,.45,3.17,3.17,0,0,1-.77,1.08,4.89,4.89,0,0,1-1.22.83,7,7,0,0,1-3.25.68q-.43,1-1.09,2.12a13.53,13.53,0,0,1-1.52,2.17,8.38,8.38,0,0,1-1.89,1.65,3.53,3.53,0,0,1-2.2.55,3.33,3.33,0,0,1-2.42-1.29,4.71,4.71,0,0,1-.94-2.77,11.33,11.33,0,0,1,.25-2.57,13.72,13.72,0,0,1,.83-2.63,13.87,13.87,0,0,1,1.35-2.45,10.66,10.66,0,0,1,1.8-2,7.5,7.5,0,0,1,2.19-1.32,6,6,0,0,1,2.48-.4,2.09,2.09,0,0,1,1,.26,2.23,2.23,0,0,1,.63.55,2.36,2.36,0,0,1,.37.71A6,6,0,0,1,257.47,297.07Z" transform="translate(-148.29 -254.5)"/>
    <path class="cls-1" d="M263.75,302.83a5.6,5.6,0,0,0,3.6-.65,3,3,0,0,0,.72-.63,2.52,2.52,0,0,0,.48-.88.38.38,0,0,1,.29-.28.49.49,0,0,1,.42.06.64.64,0,0,1,.25.29.56.56,0,0,1,0,.45,3.27,3.27,0,0,1-.58.88,5.42,5.42,0,0,1-.77.66,5.68,5.68,0,0,1-1.91.83,7.51,7.51,0,0,1-2,.22,14.93,14.93,0,0,1-.32,2.74A31.73,31.73,0,0,1,263,310a36.23,36.23,0,0,1-1.4,3.7,20.37,20.37,0,0,1-1.77,3.25,8.61,8.61,0,0,1-2,2.19,2.67,2.67,0,0,1-2.2.54,1.3,1.3,0,0,1-1-1.23,7.76,7.76,0,0,1,.2-2.68,29.22,29.22,0,0,1,1.12-3.74q.77-2.11,1.76-4.45t2.08-4.8q1.09-2.46,2.11-4.8t1.89-4.36q.88-2,1.52-3.62t1-2.6a2.57,2.57,0,0,0,.2-1.34q-.12-.28.31-.52a2.32,2.32,0,0,1,1-.28,2.15,2.15,0,0,1,1.22.32,1.89,1.89,0,0,1,.82,1.28,5,5,0,0,1,0,2,18.24,18.24,0,0,1-.68,2.56q-.46,1.37-1.11,2.83t-1.29,2.82q-.65,1.35-1.23,2.54l-1,2Zm-7,15.64q.37.28,1-.42a11.73,11.73,0,0,0,1.45-2,28.49,28.49,0,0,0,1.56-3q.77-1.69,1.35-3.39a23.49,23.49,0,0,0,.88-3.22,6.78,6.78,0,0,0,.11-2.48q-.65,1.39-1.45,3l-1.6,3.16q-.8,1.59-1.51,3t-1.2,2.6a12.8,12.8,0,0,0-.68,1.88Q256.49,318.38,256.73,318.47Z" transform="translate(-148.29 -254.5)"/>
    <path class="cls-1" d="M228,300.6a3,3,0,0,1,1.33-.61,10.61,10.61,0,0,1,1.92-.25,13.07,13.07,0,0,1,2,.07,5.36,5.36,0,0,1,1.63.41,1.21,1.21,0,0,1,.75.75q.11.45-.61,1a23.2,23.2,0,0,0-4.61,5.41,46.32,46.32,0,0,0-3.69,7.17,59.81,59.81,0,0,0-2.69,8.19,73,73,0,0,0-1.63,8.48,56.85,56.85,0,0,0-.5,8,31.79,31.79,0,0,0,.72,6.74,12.77,12.77,0,0,0,2,4.77,4.62,4.62,0,0,0,3.39,2,.74.74,0,0,1,.61.32.8.8,0,0,1,.09.59,1.26,1.26,0,0,1-.32.59,1,1,0,0,1-.66.32,9.64,9.64,0,0,1-10.18-4.93,18,18,0,0,1-2.08-6.11,42.39,42.39,0,0,1-.54-7.46,57.88,57.88,0,0,1,.66-8q.61-4,1.52-7.67a59.63,59.63,0,0,1,2-6.56,26.24,26.24,0,0,1,2.19-4.66q-2.17,2.17-4.34,4.57t-4.3,4.89q-4.25,5.07-7.33,9.45a23.6,23.6,0,0,1,1.76,7,13.31,13.31,0,0,1-.77,5.7,9.44,9.44,0,0,1-2.67,3.89,5.17,5.17,0,0,1-3.17,1.18,3.46,3.46,0,0,1-1.18-.18,1.53,1.53,0,0,1-.43-.16,7.63,7.63,0,0,1-.68-.36,3.79,3.79,0,0,1-.61-.45.68.68,0,0,1-.27-.48q-1.09-2.4,1.22-8a31.84,31.84,0,0,1,2-4.07,37.56,37.56,0,0,0-1.9-4.79q-1.18-2.49-2.4-4.93l-.9,1.79q-.45.88-1,1.79a45.63,45.63,0,0,1-6.56,9.41,26.12,26.12,0,0,1-4.16,3.64,16.86,16.86,0,0,1-4.34,2.19,17.31,17.31,0,0,1-3.89.93,11.58,11.58,0,0,1-3.85-.25,9.5,9.5,0,0,1-2.85-1.18,8.94,8.94,0,0,1-2.26-2,10.12,10.12,0,0,1-1.63-3,11.72,11.72,0,0,1-.63-3.6,13.17,13.17,0,0,1,.45-3.75,13.39,13.39,0,0,1,1.45-3.44,12.79,12.79,0,0,1,6.11-5.25,17.39,17.39,0,0,1,10.13-.77,1,1,0,0,1,.57.34.93.93,0,0,1,.2.61.87.87,0,0,1-.81.86,12.37,12.37,0,0,0-5.13,1.67,10.76,10.76,0,0,0-3.32,3.14,11.27,11.27,0,0,0-1.76,7.94,8.2,8.2,0,0,0,1.33,3.37,5.14,5.14,0,0,0,2.62,2,6.27,6.27,0,0,0,3.75-.07,13.88,13.88,0,0,0,4.82-2.83,24.05,24.05,0,0,0,4-4.27q1.81-2.47,3.19-4.79t2.26-4.16q.88-1.83,1.15-2.42-1.63-3.12-2.83-5.84a17.65,17.65,0,0,1-1.47-5,14.11,14.11,0,0,1,.41-5.2,9.83,9.83,0,0,1,2.17-3.94,6.36,6.36,0,0,1,2.13-1.56,5.28,5.28,0,0,1,2.35-.48,1.6,1.6,0,0,1,.5.09h0a2.58,2.58,0,0,1,2.08,1.09,5.49,5.49,0,0,1,1.09,3.08,17.68,17.68,0,0,1-.32,4.7q-.27,1.49-.81,3.53t-1.36,4.39L201,318.7l1.88,3.69q.93,1.83,1.7,3.73,1.45-2,3.14-4.18t3.64-4.46q2.08-2.44,4.27-4.82t4.37-4.55q2.17-2.17,4.18-4.07T228,300.6Z" transform="translate(-148.29 -254.5)"/>
    <path class="cls-1" d="M247.36,319.51a.73.73,0,0,1,.27,1q-.77,1.63-1.83,3.42a32.6,32.6,0,0,1-2.4,3.48,29.72,29.72,0,0,1-2.83,3.12,15.61,15.61,0,0,1-3.1,2.33A9.87,9.87,0,0,1,234.2,334a6,6,0,0,1-3.3-.41,5,5,0,0,1-2.6-2.1,7.23,7.23,0,0,1-.93-3.05,11.38,11.38,0,0,1,.27-3.46,23.86,23.86,0,0,1,3.42-8,15.27,15.27,0,0,1,2.83-3.14,10.82,10.82,0,0,1,3.08-1.81,9.17,9.17,0,0,1,3.21-.59,3.31,3.31,0,0,1,2.47.81,2.92,2.92,0,0,1,.79,2.13,7,7,0,0,1-.72,2.9,12.73,12.73,0,0,1-2.06,3.1,15.81,15.81,0,0,1-3.23,2.76,14.66,14.66,0,0,1-4.25,1.88,16.21,16.21,0,0,0-.45,2.33,10,10,0,0,0,0,2.1,4.18,4.18,0,0,0,.43,1.58,1.43,1.43,0,0,0,1,.77,3.81,3.81,0,0,0,2.15-.29,9.91,9.91,0,0,0,2.35-1.43,20,20,0,0,0,2.35-2.22,31.79,31.79,0,0,0,4-5.45,18.74,18.74,0,0,0,1.24-2.56.82.82,0,0,1,.48-.5A.75.75,0,0,1,247.36,319.51Zm-13.25,2.85a9.23,9.23,0,0,0-.36.9,12.25,12.25,0,0,0,4.46-2.6,13.17,13.17,0,0,0,2.6-3.26,6.39,6.39,0,0,0,.88-2.78q0-1.18-.79-1.22-1.22,0-3.08,2.35A32.1,32.1,0,0,0,234.11,322.36Z" transform="translate(-148.29 -254.5)"/>
    <path class="cls-1" d="M264.12,321.63q0,.22-.42.22a2.42,2.42,0,0,1-.91-.2,2.64,2.64,0,0,1-.91-.63,1.53,1.53,0,0,1-.42-1.11,1.2,1.2,0,0,1,.15-.49q.15-.31.35-.65t.35-.63a1.08,1.08,0,0,0,.15-.45c0-.12.13-.18.4-.18a2.17,2.17,0,0,1,.88.22,2.74,2.74,0,0,1,.88.65,1.52,1.52,0,0,1,.4,1.08,1.17,1.17,0,0,1-.14.45q-.14.29-.32.62c-.12.22-.23.43-.32.63A1.29,1.29,0,0,0,264.12,321.63Z" transform="translate(-148.29 -254.5)"/>
</svg>