<?xml version="1.0" encoding="utf-8"?>
<!-- Generator: Adobe Illustrator 20.1.0, SVG Export Plug-In . SVG Version: 6.00 Build 0)  -->
<svg version="1.1" id="Layer_1" xmlns="http://www.w3.org/2000/svg" xmlns:xlink="http://www.w3.org/1999/xlink" x="0px" y="0px"
	 viewBox="0 0 497.7 577.3" style="enable-background:new 0 0 497.7 577.3;" xml:space="preserve">
<style type="text/css">
	.st0{fill:#2F4550;}
	.st1{fill:#F4F4F9;}
	.st2{font-family:'BacktoBlackDemo';}
	.st3{font-size:139.2408px;}
	.st4{font-size:92.9004px;}
	.st5{fill:none;}
</style>
<title>BanfOfMe</title>
<path class="st0" d="M257.7,20.4c3.1,0,14.6,0.6,16.3,0.7c22.6,1.4,45.1,4,67.3,8.8c4,0.8,7.9,1.9,11.9,3
	c10.6,2.7,20.8,6.4,30.7,11.1c7.3,3.5,14.5,7.5,21.3,11.8c14.1,9,25.2,21.1,34.2,35.3c8.4,13.3,14.3,28.1,17.4,43.5
	c1.8,9,2.8,18.1,2.3,24.4c0,24.2-3.7,44.8-9.4,65.1c-2.4,8.5-5.3,16.7-8.2,25c-0.8,1.8-1.6,3.5-2.6,5.1c-0.5,0.8-1,1.7-1.2,2.7
	c-0.7,5.9-3.6,11-5.9,16.4c-4.2,9.9-8.7,19.7-13.4,29.3c-4.9,10-9.9,20-15.3,29.7c-7.6,13.7-15.4,27.2-23.7,40.4
	c-10.3,16.4-21,32.5-31.8,48.4c-7.5,11-15.1,21.9-23.4,32.3c-6.5,8.1-14.1,15.5-21.2,23.1c-3.2,3.4-6.4,6.7-9.7,9.9
	c-11.4,11.4-24.3,19.8-41,21.5c-14.2,1.5-25.7-3.5-36.5-12.1c-10.3-8.2-19.5-17.4-28.4-27c-10.6-11.5-20.5-23.8-29.4-36.7
	c-7.4-10.7-15.3-21.1-22.6-31.9s-14.3-21.7-21-32.8c-7.4-12.2-14.6-24.4-21.6-36.8c-11.7-20.7-21.9-42.2-30.3-64.5
	c-4.6-12-8.9-24.1-12.8-36.3c-4.2-13.1-7.2-26.6-9.1-40.3c-2-14.2-2.8-28.5-1.5-42.8c1.9-19.7,7.8-37.9,19.2-54.3
	c9.8-14.1,22.3-26.1,36.8-35.3c11.2-7.2,23.2-13.1,35.8-17.5c13.4-4.5,27.1-8.2,41-11c18.4-4,37.1-6.5,55.9-7.5
	C237.8,20.7,247.7,20.7,257.7,20.4"/>
<text transform="matrix(1 0 0 1 122.5228 203.0059)" class="st1 st2 st3">B</text>
<text transform="matrix(1 0 0 1 148.013 314.4648)" class="st1 st2 st3">M</text>
<text transform="matrix(1 0 0 1 275.2523 203.3516)" class="st1 st2 st4">of</text>
<rect x="-1.2" y="14" class="st5" width="500" height="500"/>
</svg>
