<svg xmlns="http://www.w3.org/2000/svg" viewBox="0 0 664.04 372.97"><defs><style>.cls-1{fill:#252831;}.cls-2,.cls-3{fill:none;stroke-miterlimit:10;stroke-width:2px;}.cls-2{stroke:#1ea7da;}.cls-3{stroke:#43ba8a;}</style></defs><title>Asset 3</title><g id="Layer_2" data-name="Layer 2"><g id="Layer_1-2" data-name="Layer 1"><rect class="cls-1" width="664.04" height="372.97"/><line class="cls-2" x1="3.82" y1="372.41" x2="3.82" y2="319.97"/><line class="cls-3" x1="11.45" y1="372.41" x2="11.45" y2="302.72"/><line class="cls-3" x1="286.22" y1="372.41" x2="286.22" y2="319.97"/><line class="cls-2" x1="49.61" y1="372.41" x2="49.61" y2="302.72"/><line class="cls-3" x1="255.69" y1="372.41" x2="255.69" y2="327.68"/><line class="cls-2" x1="19.08" y1="372.41" x2="19.08" y2="302.72"/><line class="cls-3" x1="225.16" y1="372.41" x2="225.16" y2="313.08"/><line class="cls-3" x1="499.93" y1="372.41" x2="499.93" y2="272.85"/><line class="cls-3" x1="194.63" y1="372.41" x2="194.63" y2="282.96"/><line class="cls-3" x1="469.4" y1="372.41" x2="469.4" y2="302.72"/><line class="cls-3" x1="164.1" y1="372.41" x2="164.1" y2="296.28"/><line class="cls-3" x1="438.87" y1="372.41" x2="438.87" y2="323.26"/><line class="cls-3" x1="133.57" y1="372.41" x2="133.57" y2="307.51"/><line class="cls-3" x1="408.34" y1="372.41" x2="408.34" y2="307.51"/><line class="cls-3" x1="103.04" y1="372.41" x2="103.04" y2="302.72"/><line class="cls-3" x1="377.81" y1="372.41" x2="377.81" y2="302.72"/><line class="cls-3" x1="72.51" y1="372.41" x2="72.51" y2="313.08"/><line class="cls-3" x1="347.28" y1="372.41" x2="347.28" y2="302.72"/><line class="cls-3" x1="41.98" y1="372.41" x2="41.98" y2="313.08"/><line class="cls-3" x1="316.75" y1="372.41" x2="316.75" y2="307.51"/><line class="cls-3" x1="26.71" y1="372.41" x2="26.71" y2="282.96"/><line class="cls-2" x1="95.41" y1="372.41" x2="95.41" y2="302.72"/><line class="cls-3" x1="57.24" y1="372.41" x2="57.24" y2="319.97"/><line class="cls-3" x1="87.77" y1="372.41" x2="87.77" y2="302.72"/><line class="cls-3" x1="393.08" y1="372.41" x2="393.08" y2="319.97"/><line class="cls-2" x1="187" y1="372.41" x2="187" y2="302.72"/><line class="cls-3" x1="362.55" y1="372.41" x2="362.55" y2="327.68"/><line class="cls-2" x1="156.47" y1="372.41" x2="156.47" y2="302.72"/><line class="cls-3" x1="332.02" y1="372.41" x2="332.02" y2="313.08"/><line class="cls-2" x1="125.94" y1="372.41" x2="125.94" y2="272.85"/><line class="cls-3" x1="301.49" y1="372.41" x2="301.49" y2="282.96"/><line class="cls-2" x1="64.88" y1="372.41" x2="64.88" y2="302.72"/><line class="cls-3" x1="270.96" y1="372.41" x2="270.96" y2="296.28"/><line class="cls-2" x1="34.35" y1="372.41" x2="34.35" y2="323.26"/><line class="cls-3" x1="240.43" y1="372.41" x2="240.43" y2="307.51"/><line class="cls-3" x1="515.2" y1="372.41" x2="515.2" y2="307.51"/><line class="cls-3" x1="209.9" y1="372.41" x2="209.9" y2="302.72"/><line class="cls-3" x1="484.67" y1="372.41" x2="484.67" y2="302.72"/><line class="cls-3" x1="179.37" y1="372.41" x2="179.37" y2="313.08"/><line class="cls-3" x1="454.14" y1="372.41" x2="454.14" y2="302.72"/><line class="cls-3" x1="148.84" y1="372.41" x2="148.84" y2="313.08"/><line class="cls-3" x1="423.61" y1="372.41" x2="423.61" y2="307.51"/><line class="cls-3" x1="118.31" y1="372.41" x2="118.31" y2="282.96"/><line class="cls-2" x1="217.53" y1="372.41" x2="217.53" y2="302.72"/><line class="cls-2" x1="80.14" y1="372.41" x2="80.14" y2="319.97"/><line class="cls-2" x1="110.67" y1="372.41" x2="110.67" y2="302.72"/><line class="cls-2" x1="446.51" y1="372.41" x2="446.51" y2="319.97"/><line class="cls-3" x1="622.06" y1="372.41" x2="622.06" y2="302.72"/><line class="cls-2" x1="415.98" y1="372.41" x2="415.98" y2="327.68"/><line class="cls-3" x1="606.79" y1="372.41" x2="606.79" y2="302.72"/><line class="cls-2" x1="385.45" y1="372.41" x2="385.45" y2="313.08"/><line class="cls-3" x1="591.53" y1="372.41" x2="591.53" y2="272.85"/><line class="cls-2" x1="354.92" y1="372.41" x2="354.92" y2="282.96"/><line class="cls-3" x1="576.26" y1="372.41" x2="576.26" y2="302.72"/><line class="cls-2" x1="324.38" y1="372.41" x2="324.38" y2="296.28"/><line class="cls-3" x1="561" y1="372.41" x2="561" y2="323.26"/><line class="cls-2" x1="293.85" y1="372.41" x2="293.85" y2="307.51"/><line class="cls-3" x1="545.73" y1="372.41" x2="545.73" y2="307.51"/><line class="cls-2" x1="263.32" y1="372.41" x2="263.32" y2="302.72"/><line class="cls-3" x1="530.46" y1="372.41" x2="530.46" y2="302.72"/><line class="cls-2" x1="232.79" y1="372.41" x2="232.79" y2="313.08"/><line class="cls-2" x1="507.57" y1="372.41" x2="507.57" y2="302.72"/><line class="cls-2" x1="171.73" y1="372.41" x2="171.73" y2="313.08"/><line class="cls-2" x1="477.04" y1="372.41" x2="477.04" y2="307.51"/><line class="cls-2" x1="141.2" y1="372.41" x2="141.2" y2="282.96"/><line class="cls-3" x1="637.32" y1="372.41" x2="637.32" y2="302.72"/><line class="cls-2" x1="202.26" y1="372.41" x2="202.26" y2="319.97"/><line class="cls-2" x1="248.06" y1="372.41" x2="248.06" y2="302.72"/><line class="cls-2" x1="538.1" y1="372.41" x2="538.1" y2="319.97"/><line class="cls-2" x1="660.22" y1="372.41" x2="660.22" y2="307.51"/><line class="cls-2" x1="522.83" y1="372.41" x2="522.83" y2="327.68"/><line class="cls-3" x1="652.59" y1="372.41" x2="652.59" y2="302.72"/><line class="cls-2" x1="492.3" y1="372.41" x2="492.3" y2="313.08"/><line class="cls-2" x1="644.95" y1="372.41" x2="644.95" y2="272.85"/><line class="cls-2" x1="461.77" y1="372.41" x2="461.77" y2="282.96"/><line class="cls-2" x1="629.69" y1="372.41" x2="629.69" y2="296.28"/><line class="cls-2" x1="431.24" y1="372.41" x2="431.24" y2="296.28"/><line class="cls-2" x1="614.42" y1="372.41" x2="614.42" y2="323.26"/><line class="cls-2" x1="400.71" y1="372.41" x2="400.71" y2="307.51"/><line class="cls-2" x1="599.16" y1="372.41" x2="599.16" y2="307.51"/><line class="cls-2" x1="370.18" y1="372.41" x2="370.18" y2="302.72"/><line class="cls-2" x1="583.89" y1="372.41" x2="583.89" y2="302.72"/><line class="cls-2" x1="339.65" y1="372.41" x2="339.65" y2="313.08"/><line class="cls-2" x1="568.63" y1="372.41" x2="568.63" y2="302.72"/><line class="cls-2" x1="309.12" y1="372.41" x2="309.12" y2="313.08"/><line class="cls-2" x1="553.36" y1="372.41" x2="553.36" y2="307.51"/><line class="cls-2" x1="278.59" y1="372.41" x2="278.59" y2="282.96"/></g></g></svg>